<mxfile host="Electron" agent="Mozilla/5.0 (X11; Linux x86_64) AppleWebKit/537.36 (KHTML, like Gecko) draw.io/24.7.8 Chrome/128.0.6613.36 Electron/32.0.1 Safari/537.36" version="24.7.8">
  <diagram id="C5RBs43oDa-KdzZeNtuy" name="Page-1">
    <mxGraphModel dx="569" dy="590" grid="1" gridSize="10" guides="1" tooltips="1" connect="1" arrows="1" fold="1" page="1" pageScale="1" pageWidth="827" pageHeight="1169" math="0" shadow="0">
      <root>
        <mxCell id="WIyWlLk6GJQsqaUBKTNV-0" />
        <mxCell id="WIyWlLk6GJQsqaUBKTNV-1" parent="WIyWlLk6GJQsqaUBKTNV-0" />
        <mxCell id="hb0k284xmjxLUL2K_oIH-9" value="" style="edgeStyle=orthogonalEdgeStyle;rounded=0;orthogonalLoop=1;jettySize=auto;html=1;" edge="1" parent="WIyWlLk6GJQsqaUBKTNV-1" source="hb0k284xmjxLUL2K_oIH-0" target="hb0k284xmjxLUL2K_oIH-2">
          <mxGeometry relative="1" as="geometry" />
        </mxCell>
        <mxCell id="hb0k284xmjxLUL2K_oIH-0" value="Start" style="ellipse;whiteSpace=wrap;html=1;fontSize=16;" vertex="1" parent="WIyWlLk6GJQsqaUBKTNV-1">
          <mxGeometry x="250" y="150" width="100" height="60" as="geometry" />
        </mxCell>
        <mxCell id="hb0k284xmjxLUL2K_oIH-1" value="End" style="ellipse;whiteSpace=wrap;html=1;fontSize=16;" vertex="1" parent="WIyWlLk6GJQsqaUBKTNV-1">
          <mxGeometry x="250" y="830" width="100" height="60" as="geometry" />
        </mxCell>
        <mxCell id="hb0k284xmjxLUL2K_oIH-10" value="" style="edgeStyle=orthogonalEdgeStyle;rounded=0;orthogonalLoop=1;jettySize=auto;html=1;" edge="1" parent="WIyWlLk6GJQsqaUBKTNV-1" source="hb0k284xmjxLUL2K_oIH-2" target="hb0k284xmjxLUL2K_oIH-3">
          <mxGeometry relative="1" as="geometry" />
        </mxCell>
        <mxCell id="hb0k284xmjxLUL2K_oIH-2" value="Read input" style="shape=parallelogram;perimeter=parallelogramPerimeter;whiteSpace=wrap;html=1;fixedSize=1;" vertex="1" parent="WIyWlLk6GJQsqaUBKTNV-1">
          <mxGeometry x="240" y="250" width="120" height="40" as="geometry" />
        </mxCell>
        <mxCell id="hb0k284xmjxLUL2K_oIH-11" value="" style="edgeStyle=orthogonalEdgeStyle;rounded=0;orthogonalLoop=1;jettySize=auto;html=1;" edge="1" parent="WIyWlLk6GJQsqaUBKTNV-1" source="hb0k284xmjxLUL2K_oIH-3" target="hb0k284xmjxLUL2K_oIH-4">
          <mxGeometry relative="1" as="geometry" />
        </mxCell>
        <mxCell id="hb0k284xmjxLUL2K_oIH-3" value="sum = 0" style="rounded=0;whiteSpace=wrap;html=1;" vertex="1" parent="WIyWlLk6GJQsqaUBKTNV-1">
          <mxGeometry x="250" y="320" width="100" height="40" as="geometry" />
        </mxCell>
        <mxCell id="hb0k284xmjxLUL2K_oIH-12" value="" style="edgeStyle=orthogonalEdgeStyle;rounded=0;orthogonalLoop=1;jettySize=auto;html=1;" edge="1" parent="WIyWlLk6GJQsqaUBKTNV-1" source="hb0k284xmjxLUL2K_oIH-4" target="hb0k284xmjxLUL2K_oIH-5">
          <mxGeometry relative="1" as="geometry" />
        </mxCell>
        <mxCell id="hb0k284xmjxLUL2K_oIH-4" value="processed = input" style="rounded=0;whiteSpace=wrap;html=1;" vertex="1" parent="WIyWlLk6GJQsqaUBKTNV-1">
          <mxGeometry x="230" y="390" width="140" height="40" as="geometry" />
        </mxCell>
        <mxCell id="hb0k284xmjxLUL2K_oIH-15" value="" style="edgeStyle=orthogonalEdgeStyle;rounded=0;orthogonalLoop=1;jettySize=auto;html=1;" edge="1" parent="WIyWlLk6GJQsqaUBKTNV-1" source="hb0k284xmjxLUL2K_oIH-5" target="hb0k284xmjxLUL2K_oIH-6">
          <mxGeometry relative="1" as="geometry" />
        </mxCell>
        <mxCell id="hb0k284xmjxLUL2K_oIH-22" value="Yes" style="edgeLabel;html=1;align=center;verticalAlign=middle;resizable=0;points=[];" vertex="1" connectable="0" parent="hb0k284xmjxLUL2K_oIH-15">
          <mxGeometry x="-0.2476" y="1" relative="1" as="geometry">
            <mxPoint as="offset" />
          </mxGeometry>
        </mxCell>
        <mxCell id="hb0k284xmjxLUL2K_oIH-21" style="edgeStyle=orthogonalEdgeStyle;rounded=0;orthogonalLoop=1;jettySize=auto;html=1;" edge="1" parent="WIyWlLk6GJQsqaUBKTNV-1" source="hb0k284xmjxLUL2K_oIH-5" target="hb0k284xmjxLUL2K_oIH-8">
          <mxGeometry relative="1" as="geometry">
            <mxPoint x="490" y="740" as="targetPoint" />
            <Array as="points">
              <mxPoint x="450" y="500" />
              <mxPoint x="450" y="760" />
            </Array>
          </mxGeometry>
        </mxCell>
        <mxCell id="hb0k284xmjxLUL2K_oIH-23" value="No" style="edgeLabel;html=1;align=center;verticalAlign=middle;resizable=0;points=[];" vertex="1" connectable="0" parent="hb0k284xmjxLUL2K_oIH-21">
          <mxGeometry x="-0.8753" relative="1" as="geometry">
            <mxPoint as="offset" />
          </mxGeometry>
        </mxCell>
        <mxCell id="hb0k284xmjxLUL2K_oIH-5" value="If processed &amp;gt; 0" style="rhombus;whiteSpace=wrap;html=1;" vertex="1" parent="WIyWlLk6GJQsqaUBKTNV-1">
          <mxGeometry x="210" y="470" width="180" height="60" as="geometry" />
        </mxCell>
        <mxCell id="hb0k284xmjxLUL2K_oIH-17" style="edgeStyle=orthogonalEdgeStyle;rounded=0;orthogonalLoop=1;jettySize=auto;html=1;entryX=0.5;entryY=0;entryDx=0;entryDy=0;" edge="1" parent="WIyWlLk6GJQsqaUBKTNV-1" source="hb0k284xmjxLUL2K_oIH-6" target="hb0k284xmjxLUL2K_oIH-7">
          <mxGeometry relative="1" as="geometry" />
        </mxCell>
        <mxCell id="hb0k284xmjxLUL2K_oIH-6" value="sum = sum + processed % 10" style="rounded=0;whiteSpace=wrap;html=1;" vertex="1" parent="WIyWlLk6GJQsqaUBKTNV-1">
          <mxGeometry x="200" y="585" width="200" height="40" as="geometry" />
        </mxCell>
        <mxCell id="hb0k284xmjxLUL2K_oIH-20" style="edgeStyle=orthogonalEdgeStyle;rounded=0;orthogonalLoop=1;jettySize=auto;html=1;entryX=0;entryY=0.5;entryDx=0;entryDy=0;" edge="1" parent="WIyWlLk6GJQsqaUBKTNV-1" source="hb0k284xmjxLUL2K_oIH-7" target="hb0k284xmjxLUL2K_oIH-5">
          <mxGeometry relative="1" as="geometry">
            <Array as="points">
              <mxPoint x="170" y="680" />
              <mxPoint x="170" y="500" />
            </Array>
          </mxGeometry>
        </mxCell>
        <mxCell id="hb0k284xmjxLUL2K_oIH-7" value="processed = processed / 10" style="rounded=0;whiteSpace=wrap;html=1;" vertex="1" parent="WIyWlLk6GJQsqaUBKTNV-1">
          <mxGeometry x="200" y="660" width="200" height="40" as="geometry" />
        </mxCell>
        <mxCell id="hb0k284xmjxLUL2K_oIH-19" style="edgeStyle=orthogonalEdgeStyle;rounded=0;orthogonalLoop=1;jettySize=auto;html=1;" edge="1" parent="WIyWlLk6GJQsqaUBKTNV-1" source="hb0k284xmjxLUL2K_oIH-8" target="hb0k284xmjxLUL2K_oIH-1">
          <mxGeometry relative="1" as="geometry" />
        </mxCell>
        <mxCell id="hb0k284xmjxLUL2K_oIH-8" value="Print &quot;Sum of digits: &quot;, sum" style="shape=parallelogram;perimeter=parallelogramPerimeter;whiteSpace=wrap;html=1;fixedSize=1;" vertex="1" parent="WIyWlLk6GJQsqaUBKTNV-1">
          <mxGeometry x="190" y="740" width="220" height="40" as="geometry" />
        </mxCell>
      </root>
    </mxGraphModel>
  </diagram>
</mxfile>
